<?xml version="1.0" encoding="utf-8"?>
<!-- Generator: Adobe Illustrator 17.0.0, SVG Export Plug-In . SVG Version: 6.00 Build 0)  -->
<!DOCTYPE svg PUBLIC "-//W3C//DTD SVG 1.1//EN" "http://www.w3.org/Graphics/SVG/1.1/DTD/svg11.dtd">
<svg version="1.1" id="Layer_1" xmlns="http://www.w3.org/2000/svg" xmlns:xlink="http://www.w3.org/1999/xlink" x="0px" y="0px"
	 width="845.1px" height="165.2px" viewBox="0 0 845.1 165.2" enable-background="new 0 0 845.1 165.2" xml:space="preserve">
<g>
	<defs>
		<rect id="SVGID_1_" width="845" height="165"/>
	</defs>
	<clipPath id="SVGID_2_">
		<use xlink:href="#SVGID_1_"  overflow="visible"/>
	</clipPath>
	<path clip-path="url(#SVGID_2_)" fill="#FFFFFF" d="M534.4,164.6v-29.8h-3.2l-2.8,18.3l-2.1-18.3h-4.1v29.8h2.6v-21.3l2.2,21.3h2.1
		l2.4-21.2v21.2H534.4z M517.8,160.5c0,0.8-0.3,1.2-0.9,1.2c-0.7,0-1-0.4-1-1.2v-21.6c0-0.8,0.3-1.2,1-1.2c0.6,0,0.9,0.4,0.9,1.2
		V160.5z M520.8,160.1v-20.7c0-3-1.8-4.9-3.9-4.9c-2.1,0-3.9,1.9-3.9,4.9v20.7c0,3,1.8,4.9,3.9,4.9
		C519.1,165,520.8,163.1,520.8,160.1 M511.6,160.1V154h-2.9v6.6c0,0.8-0.3,1.2-0.9,1.2c-0.6,0-0.9-0.4-0.9-1.2v-21.6
		c0-0.8,0.3-1.2,0.9-1.2c0.6,0,0.9,0.4,0.9,1.2v6.6h2.9v-6.1c0-3-1.7-4.9-3.8-4.9c-2.1,0-3.8,1.9-3.8,4.9v20.7c0,3,1.6,4.9,3.8,4.9
		C510,165,511.6,163.1,511.6,160.1 M502.7,161H500v3.7h2.6V161z M498.8,164.6v-14.6h-3.6v2.8h0.8v8c0,0.8-0.4,1.2-1,1.2
		c-0.6,0-1-0.4-1-1.2v-22c0-0.8,0.3-1.2,0.9-1.2c0.7,0,0.9,0.4,0.9,1.2v6.4h2.9v-5.9c0-3-1.7-4.9-3.8-4.9s-3.8,1.9-3.8,4.9v20.7
		c0,3.4,1.3,4.9,3.4,4.9c0.8,0,1.8-0.4,2.1-1.2l0.3,0.8H498.8z M489.8,164.6v-29.8h-2.4v16.7l-3.2-16.7h-2.6v29.8h2.5v-16.5
		l3.7,16.5H489.8z M480,134.8h-3v29.8h3V134.8z M475.5,164.6v-29.8h-2.9v13.4h-1.9v-13.4h-2.9v29.8h2.9v-13h1.9v13H475.5z
		 M466.7,138.4v-3.6h-7.1v3.6h2.2v26.2h2.9v-26.2H466.7z M455.5,160.4c0,0.9-0.3,1.2-0.6,1.2h-1.3v-23.7h1.3c0.3,0,0.6,0.3,0.6,1.2
		V160.4z M458.5,160.1v-20.8c0-3.8-2.1-4.5-3.6-4.5h-4.2v29.8h4.2C456.4,164.6,458.5,163.9,458.5,160.1 M449.8,164.6v-3.1h-3.4
		v-26.7h-3v29.8H449.8z M442,134.8h-3v29.8h3V134.8z M437.7,134.8h-2.7l-1.3,15.9l-1.3-15.9h-1.5l-1.2,15.9l-1.3-15.9h-2.8l2.7,29.8
		h2.1l1.3-14.8l1.3,14.8h2L437.7,134.8z M424.9,138.4v-3.6h-7.1v3.6h2.2v26.2h2.9v-26.2H424.9z M416.6,160.1V154h-2.9v6.6
		c0,0.8-0.3,1.2-0.9,1.2c-0.6,0-0.9-0.4-0.9-1.2v-21.6c0-0.8,0.3-1.2,0.9-1.2c0.6,0,0.9,0.4,0.9,1.2v6.6h2.9v-6.1
		c0-3-1.7-4.9-3.8-4.9c-2.1,0-3.8,1.9-3.8,4.9v20.7c0,3,1.6,4.9,3.8,4.9C414.9,165,416.6,163.1,416.6,160.1 M408,164.6v-3.1h-3.4
		v-10.7h2.3v-3.1h-2.3v-9.7h3.4v-3.3h-6.3v29.8H408z M400.3,160.1v-25.3h-2.8v25.9c0,0.8-0.3,1.2-0.9,1.2c-0.6,0-0.9-0.4-0.9-1.2
		v-7.1h-2.8v6.5c0,3,1.6,4.9,3.8,4.9C398.7,165,400.3,163.1,400.3,160.1 M388.6,160.5c0,0.8-0.3,1.2-0.9,1.2c-0.7,0-1-0.4-1-1.2
		v-21.6c0-0.8,0.3-1.2,1-1.2c0.6,0,0.9,0.4,0.9,1.2V160.5z M391.6,160.1v-20.7c0-3-1.8-4.9-3.9-4.9s-3.9,1.9-3.9,4.9v20.7
		c0,3,1.8,4.9,3.9,4.9S391.6,163.1,391.6,160.1 M379.5,147.4c0,0.9-0.2,1.2-0.6,1.2h-1v-10.7h1c0.4,0,0.6,0.3,0.6,1.2V147.4z
		 M382.8,164.6c-0.2-1.5-0.4-3.1-0.4-5v-6.3c0-1.4-0.7-2.3-1.5-3.1c0.8-0.8,1.4-1.7,1.4-3.1v-7.8c0-3.8-1.9-4.5-3.5-4.5h-4v29.8h3
		v-13h0.9c0.4,0,0.7,0.5,0.7,1.2v7.2c0,1.6,0.2,3.3,0.4,4.6H382.8z M370.7,147.7c0,0.9-0.2,1.2-0.6,1.2h-1v-11h1
		c0.4,0,0.6,0.3,0.6,1.2V147.7z M373.6,147.6v-8.2c0-3.8-1.9-4.5-3.5-4.5h-4v29.8h3V152h1C371.6,152,373.6,151.3,373.6,147.6"/>
	<path clip-path="url(#SVGID_2_)" fill="#C4D600" d="M361.2,164.6v-1.9h-2.1v-6.4h1.4v-1.9h-1.4v-5.8h2.1v-2h-3.8v17.9H361.2z
		 M354.8,162.1c0,0.5-0.2,0.7-0.3,0.7h-0.8v-14.2h0.8c0.2,0,0.3,0.2,0.3,0.7V162.1z M356.6,161.9v-12.5c0-2.3-1.2-2.7-2.1-2.7H352
		v17.9h2.5C355.4,164.6,356.6,164.2,356.6,161.9 M351,146.7h-1.8v17.9h1.8V146.7z M348.3,161.8c0-2.3-0.7-4.6-1.7-7.1
		c-0.9-2.4-1.3-2.8-1.3-5.4c0-0.5,0.3-0.8,0.6-0.8c0.2,0,0.6,0.3,0.6,0.8v2.8h1.7v-2.3c0-1.8-0.9-3.3-2.2-3.3
		c-1.8,0-2.5,1.4-2.5,3.3c0,2.3,1.2,5.2,1.9,7c0.9,2.3,1,3.6,1,5.4c0,0.6-0.3,0.9-0.6,0.9c-0.4,0-0.7-0.5-0.7-0.9v-2.5h-1.6v1.9
		c0,1.8,0.8,3.3,2.3,3.3C346.4,164.9,348.3,164.8,348.3,161.8 M343.1,148.9v-2.1h-4.3v2.1h1.3v15.7h1.7v-15.7H343.1z M338.2,161.9
		v-15.2h-1.6v15.4c0,0.5-0.2,0.7-0.6,0.7c-0.4,0-0.5-0.2-0.5-0.7v-15.4h-1.7v15.2c0,1.8,0.9,3,2.2,3
		C337.3,164.9,338.2,163.7,338.2,161.9 M331.2,162.2c0,0.5-0.2,0.7-0.5,0.7c-0.4,0-0.6-0.2-0.6-0.7v-13c0-0.5,0.2-0.7,0.6-0.7
		c0.4,0,0.5,0.2,0.5,0.7V162.2z M333,161.9v-12.4c0-1.8-1.1-3-2.3-3c-1.3,0-2.4,1.1-2.4,3v12.4c0,1.8,1.1,3,2.4,3
		C332,164.9,333,163.7,333,161.9 M324.3,148.9v-2.1H320v2.1h1.3v15.7h1.7v-15.7H324.3z M319.5,164.6v-1.9h-2.1v-6.4h1.4v-1.9h-1.4
		v-5.8h2.1v-2h-3.8v17.9H319.5z M315,164.6v-8.7h-2.2v1.7h0.5v4.8c0,0.5-0.2,0.7-0.6,0.7c-0.4,0-0.6-0.2-0.6-0.7v-13.2
		c0-0.5,0.2-0.7,0.5-0.7c0.4,0,0.5,0.2,0.5,0.7v3.8h1.7v-3.6c0-1.8-1-3-2.3-3c-1.3,0-2.3,1.1-2.3,3v12.4c0,2,0.8,3,2.1,3
		c0.5,0,1.1-0.2,1.3-0.7l0.2,0.5H315z"/>
	<path clip-path="url(#SVGID_2_)" fill="#FFFFFF" d="M678.4,115.7c0,0.9-0.3,1.2-0.6,1.2h-1.3V93.2h1.3c0.3,0,0.6,0.3,0.6,1.2V115.7
		z M681.4,115.4V94.6c0-3.8-2.1-4.5-3.6-4.5h-4.2v29.8h4.2C679.3,119.9,681.4,119.2,681.4,115.4 M672.2,119.9V90.1h-2.4v16.7
		l-3.2-16.7h-2.6v29.8h2.5v-16.5l3.7,16.5H672.2z M659.6,115.8c0,0.8-0.3,1.2-0.9,1.2c-0.7,0-1-0.4-1-1.2V94.2c0-0.8,0.3-1.2,1-1.2
		c0.6,0,0.9,0.4,0.9,1.2V115.8z M662.6,115.4V94.6c0-3-1.8-4.9-3.9-4.9c-2.1,0-3.9,1.9-3.9,4.9v20.7c0,3,1.8,4.9,3.9,4.9
		C660.8,120.3,662.6,118.4,662.6,115.4 M650.5,115.7c0,0.9-0.2,1.2-0.6,1.2h-1v-10.6h1c0.4,0,0.6,0.3,0.6,1.2V115.7z M650.5,102.3
		c0,0.9-0.2,1.2-0.6,1.2h-1V93.2h1c0.4,0,0.6,0.3,0.6,1.2V102.3z M653.4,115.4v-7.6c0-1.4-0.6-2.3-1.5-3.1c0.9-0.8,1.5-1.7,1.5-3.1
		v-7c0-3.8-2-4.5-3.5-4.5h-4v29.8h4C651.4,119.9,653.4,119.2,653.4,115.4 M637.6,115.7c0,0.9-0.3,1.2-0.6,1.2h-1.3V93.2h1.3
		c0.3,0,0.6,0.3,0.6,1.2V115.7z M640.6,115.4V94.6c0-3.8-2.1-4.5-3.6-4.5h-4.2v29.8h4.2C638.5,119.9,640.6,119.2,640.6,115.4
		 M631.3,90.1h-3v29.8h3V90.1z M627.2,90.1h-2.7l-1.4,18l-1.3-18H619l2.6,29.8h3L627.2,90.1z M615.4,110.9h-1.6l0.9-12.7
		L615.4,110.9z M618.8,119.9l-2.2-29.8h-3.8l-2.1,29.8h2.6l0.3-5.6h2l0.2,5.6H618.8z M606.7,115.7c0,0.9-0.3,1.2-0.6,1.2h-1.3V93.2
		h1.3c0.3,0,0.6,0.3,0.6,1.2V115.7z M609.7,115.4V94.6c0-3.8-2.1-4.5-3.6-4.5h-4.2v29.8h4.2C607.6,119.9,609.7,119.2,609.7,115.4"/>
	<path clip-path="url(#SVGID_2_)" fill="#C4D600" d="M597.1,102h-1.6l-0.8,7.1l-0.9-7.1h-1.7l1.5,9.9v7.9h1.9V112L597.1,102z
		 M589.9,117.4c0,0.5-0.1,0.7-0.3,0.7H589v-6.4h0.6c0.2,0,0.3,0.2,0.3,0.7V117.4z M589.9,109.3c0,0.5-0.1,0.7-0.3,0.7H589v-6.1h0.6
		c0.2,0,0.3,0.2,0.3,0.7V109.3z M591.6,117.2v-4.5c0-0.9-0.3-1.4-0.9-1.9c0.5-0.5,0.9-1,0.9-1.9v-4.2c0-2.3-1.2-2.7-2.1-2.7h-2.4
		v17.9h2.4C590.5,119.9,591.6,119.5,591.6,117.2 M581.2,117.4c0,0.5-0.2,0.7-0.3,0.7H580v-14.2h0.8c0.2,0,0.3,0.2,0.3,0.7V117.4z
		 M582.9,117.2v-12.5c0-2.3-1.2-2.7-2.1-2.7h-2.5v17.9h2.5C581.7,119.9,582.9,119.5,582.9,117.2 M577.6,119.9v-1.9h-2.1v-6.4h1.4
		v-1.9h-1.4V104h2.1v-2h-3.8v17.9H577.6z M573.1,104.2V102h-4.3v2.1h1.3v15.7h1.7v-15.7H573.1z M568.2,117.2v-3.7h-1.7v3.9
		c0,0.5-0.2,0.7-0.5,0.7c-0.4,0-0.5-0.2-0.5-0.7v-13c0-0.5,0.2-0.7,0.5-0.7c0.4,0,0.5,0.2,0.5,0.7v3.9h1.7v-3.7c0-1.8-1-3-2.3-3
		c-1.3,0-2.3,1.1-2.3,3v12.4c0,1.8,1,3,2.3,3C567.1,120.1,568.2,119,568.2,117.2 M563,119.9v-1.9H561v-6.4h1.4v-1.9H561V104h2.1v-2
		h-3.8v17.9H563z M556.6,109.6c0,0.5-0.1,0.7-0.3,0.7h-0.6v-6.4h0.6c0.2,0,0.3,0.2,0.3,0.7V109.6z M558.6,119.9
		c-0.1-0.9-0.3-1.9-0.3-3v-3.8c0-0.9-0.4-1.4-0.9-1.9c0.5-0.5,0.8-1,0.8-1.9v-4.7c0-2.3-1.2-2.7-2.1-2.7h-2.4v17.9h1.8v-7.8h0.6
		c0.3,0,0.4,0.3,0.4,0.7v4.3c0,0.9,0.1,2,0.2,2.8H558.6z M552.9,102h-1.8v17.9h1.8V102z M548.5,117.4c0,0.5-0.2,0.7-0.3,0.7h-0.8
		v-14.2h0.8c0.2,0,0.3,0.2,0.3,0.7V117.4z M550.2,117.2v-12.5c0-2.3-1.2-2.7-2.1-2.7h-2.5v17.9h2.5
		C549,119.9,550.2,119.5,550.2,117.2"/>
	<path clip-path="url(#SVGID_2_)" fill="#FFFFFF" d="M540.4,115.1c0-3.9-1.2-7.7-2.8-11.9c-1.5-4.1-2.1-4.6-2.1-9
		c0-0.9,0.6-1.3,1-1.3c0.4,0,1,0.4,1,1.3V99h2.8v-3.8c0-3-1.6-5.5-3.7-5.5c-3,0-4.2,2.3-4.2,5.4c0,3.8,2,8.6,3.1,11.6
		c1.5,3.8,1.7,5.9,1.7,9c0,1-0.4,1.6-1,1.6c-0.6,0-1.2-0.8-1.2-1.6v-4.2h-2.7v3.2c0,3,1.4,5.5,3.8,5.5
		C537.3,120.3,540.4,120.2,540.4,115.1 M531.9,119.9v-3.1h-3.4v-10.7h2.3v-3.1h-2.3v-9.7h3.4v-3.3h-6.3v29.8H531.9z M524.1,119.9
		V90.1h-2.4v16.7l-3.2-16.7h-2.6v29.8h2.5v-16.5l3.7,16.5H524.1z M511.5,115.8c0,0.8-0.3,1.2-0.9,1.2c-0.7,0-1-0.4-1-1.2V94.2
		c0-0.8,0.3-1.2,1-1.2c0.6,0,0.9,0.4,0.9,1.2V115.8z M514.5,115.4V94.6c0-3-1.8-4.9-3.9-4.9s-3.9,1.9-3.9,4.9v20.7
		c0,3,1.8,4.9,3.9,4.9S514.5,118.4,514.5,115.4 M505.4,115.4V90.1h-2.8V116c0,0.8-0.3,1.2-0.9,1.2c-0.6,0-0.9-0.4-0.9-1.2v-7.1h-2.8
		v6.5c0,3,1.6,4.9,3.8,4.9C503.8,120.3,505.4,118.4,505.4,115.4 M493.2,90.1h-2.6l-1.4,11.8l-1.5-11.8h-2.8l2.6,16.6v13.2h3.1v-13.2
		L493.2,90.1z M484.5,119.9v-3.1h-3.4v-10.7h2.3v-3.1h-2.3v-9.7h3.4v-3.3h-6.3v29.8H484.5z M477.3,119.9v-3.1H474V90.1h-3v29.8
		H477.3z M469.6,119.9V90.1h-2.9v13.4h-1.9V90.1h-2.9v29.8h2.9v-13h1.9v13H469.6z M460.4,115.1c0-3.9-1.2-7.7-2.8-11.9
		c-1.5-4.1-2.1-4.6-2.1-9c0-0.9,0.6-1.3,1-1.3c0.4,0,1,0.4,1,1.3V99h2.8v-3.8c0-3-1.6-5.5-3.7-5.5c-3,0-4.2,2.3-4.2,5.4
		c0,3.8,2,8.6,3.1,11.6c1.5,3.8,1.7,5.9,1.7,9c0,1-0.4,1.6-1,1.6c-0.6,0-1.2-0.8-1.2-1.6v-4.2h-2.7v3.2c0,3,1.4,5.5,3.8,5.5
		C457.3,120.3,460.4,120.2,460.4,115.1 M448.4,110.9h-1.6l0.9-12.7L448.4,110.9z M451.9,119.9l-2.2-29.8h-3.8l-2.1,29.8h2.6l0.3-5.6
		h2l0.2,5.6H451.9z"/>
	<path clip-path="url(#SVGID_2_)" fill="#C4D600" d="M439.3,102h-1.6l-0.9,7.1L436,102h-1.7l1.5,9.9v7.9h1.9V112L439.3,102z
		 M432.1,117.4c0,0.5-0.1,0.7-0.3,0.7h-0.6v-6.4h0.6c0.2,0,0.3,0.2,0.3,0.7V117.4z M432.1,109.3c0,0.5-0.1,0.7-0.3,0.7h-0.6v-6.1
		h0.6c0.2,0,0.3,0.2,0.3,0.7V109.3z M433.8,117.2v-4.5c0-0.9-0.3-1.4-0.9-1.9c0.5-0.5,0.9-1,0.9-1.9v-4.2c0-2.3-1.2-2.7-2.1-2.7
		h-2.4v17.9h2.4C432.6,119.9,433.8,119.5,433.8,117.2 M423.3,117.4c0,0.5-0.2,0.7-0.3,0.7h-0.8v-14.2h0.8c0.2,0,0.3,0.2,0.3,0.7
		V117.4z M425.1,117.2v-12.5c0-2.3-1.2-2.7-2.1-2.7h-2.5v17.9h2.5C423.9,119.9,425.1,119.5,425.1,117.2 M419.8,119.9v-1.9h-2.1v-6.4
		h1.4v-1.9h-1.4V104h2.1v-2H416v17.9H419.8z M415.1,117.2v-3.7h-1.7v3.9c0,0.5-0.2,0.7-0.5,0.7c-0.4,0-0.5-0.2-0.5-0.7v-13
		c0-0.5,0.2-0.7,0.5-0.7c0.4,0,0.5,0.2,0.5,0.7v3.9h1.7v-3.7c0-1.8-1-3-2.3-3s-2.3,1.1-2.3,3v12.4c0,1.8,1,3,2.3,3
		S415.1,119,415.1,117.2 M409.8,117.2V102h-1.6v15.4c0,0.5-0.2,0.7-0.6,0.7c-0.4,0-0.5-0.2-0.5-0.7V102h-1.7v15.2c0,1.8,0.9,3,2.2,3
		C408.9,120.1,409.8,119,409.8,117.2 M402.9,117.4c0,0.5-0.2,0.7-0.3,0.7h-0.8v-14.2h0.8c0.2,0,0.3,0.2,0.3,0.7V117.4z M404.7,117.2
		v-12.5c0-2.3-1.2-2.7-2.1-2.7H400v17.9h2.5C403.5,119.9,404.7,119.5,404.7,117.2 M397.4,117.5c0,0.5-0.2,0.7-0.5,0.7
		c-0.4,0-0.6-0.2-0.6-0.7v-13c0-0.5,0.2-0.7,0.6-0.7c0.4,0,0.5,0.2,0.5,0.7V117.5z M399.2,117.2v-12.4c0-1.8-1.1-3-2.3-3
		c-1.3,0-2.4,1.1-2.4,3v12.4c0,1.8,1.1,3,2.4,3C398.1,120.1,399.2,119,399.2,117.2 M391.9,109.6c0,0.5-0.1,0.7-0.3,0.7H391v-6.4h0.6
		c0.2,0,0.3,0.2,0.3,0.7V109.6z M393.9,119.9c-0.1-0.9-0.3-1.9-0.3-3v-3.8c0-0.9-0.4-1.4-0.9-1.9c0.5-0.5,0.9-1,0.9-1.9v-4.7
		c0-2.3-1.2-2.7-2.1-2.7h-2.4v17.9h1.8v-7.8h0.6c0.3,0,0.4,0.3,0.4,0.7v4.3c0,0.9,0.1,2,0.2,2.8H393.9z M386.6,109.8
		c0,0.5-0.1,0.7-0.3,0.7h-0.6v-6.6h0.6c0.2,0,0.3,0.2,0.3,0.7V109.8z M388.4,109.7v-4.9c0-2.3-1.2-2.7-2.1-2.7h-2.4v17.9h1.8v-7.6
		h0.6C387.2,112.3,388.4,111.9,388.4,109.7"/>
	<path clip-path="url(#SVGID_2_)" fill="#FFFFFF" d="M378.8,119.9V90.1h-3.2l-2.8,18.3l-2.1-18.3h-4.1v29.8h2.6V98.6l2.2,21.3h2.1
		l2.4-21.2v21.2H378.8z M362.1,110.9h-1.6l0.9-12.7L362.1,110.9z M365.5,119.9l-2.2-29.8h-3.8l-2.1,29.8h2.6l0.3-5.6h2l0.2,5.6
		H365.5z M356.3,119.9V90.1h-2.9v13.4h-1.9V90.1h-2.9v29.8h2.9v-13h1.9v13H356.3z M344.4,103c0,0.9-0.2,1.2-0.6,1.2h-1v-11h1
		c0.4,0,0.6,0.3,0.6,1.2V103z M347.3,102.8v-8.2c0-3.8-1.9-4.5-3.5-4.5h-4v29.8h3v-12.6h1C345.3,107.3,347.3,106.6,347.3,102.8
		 M338.3,90.1h-3v29.8h3V90.1z M333.8,119.9V90.1h-2.9v13.4H329V90.1h-2.9v29.8h2.9v-13h1.9v13H333.8z M325,90.1h-2.7L321,106
		l-1.3-15.9h-1.5l-1.2,15.9l-1.3-15.9h-2.8l2.7,29.8h2.1l1.3-14.8l1.3,14.8h2L325,90.1z M304.8,110.9h-1.6l0.9-12.7L304.8,110.9z
		 M308.2,119.9L306,90.1h-3.8l-2.1,29.8h2.6l0.3-5.6h2l0.2,5.6H308.2z M296,102.7c0,0.9-0.2,1.2-0.6,1.2h-1V93.2h1
		c0.4,0,0.6,0.3,0.6,1.2V102.7z M299.4,119.9c-0.2-1.5-0.4-3.1-0.4-5v-6.3c0-1.4-0.7-2.3-1.5-3.1c0.8-0.8,1.4-1.7,1.4-3.1v-7.8
		c0-3.8-1.9-4.5-3.5-4.5h-4v29.8h3v-13h0.9c0.4,0,0.7,0.5,0.7,1.2v7.2c0,1.6,0.2,3.3,0.4,4.6H299.4z M287.1,115.7
		c0,0.9-0.3,1.2-0.6,1.2h-1.3V93.2h1.3c0.3,0,0.6,0.3,0.6,1.2V115.7z M290.1,115.4V94.6c0-3.8-2.1-4.5-3.6-4.5h-4.2v29.8h4.2
		C288,119.9,290.1,119.2,290.1,115.4 M280.9,119.9V90.1h-2.4v16.7l-3.2-16.7h-2.6v29.8h2.5v-16.5l3.7,16.5H280.9z M268.1,110.9h-1.6
		l0.9-12.7L268.1,110.9z M271.5,119.9l-2.2-29.8h-3.8l-2.1,29.8h2.6l0.3-5.6h2l0.2,5.6H271.5z M262.3,115.1c0-3.9-1.2-7.7-2.8-11.9
		c-1.5-4.1-2.1-4.6-2.1-9c0-0.9,0.6-1.3,1-1.3c0.4,0,1,0.4,1,1.3V99h2.8v-3.8c0-3-1.6-5.5-3.7-5.5c-3,0-4.2,2.3-4.2,5.4
		c0,3.8,2,8.6,3.1,11.6c1.5,3.8,1.7,5.9,1.7,9c0,1-0.4,1.6-1,1.6c-0.6,0-1.2-0.8-1.2-1.6v-4.2h-2.7v3.2c0,3,1.4,5.5,3.8,5.5
		C259.2,120.3,262.3,120.2,262.3,115.1"/>
	<path clip-path="url(#SVGID_2_)" fill="#C4D600" d="M247.9,109.6c0,0.5-0.1,0.7-0.3,0.7h-0.6v-6.4h0.6c0.2,0,0.3,0.2,0.3,0.7V109.6
		z M249.9,119.9c-0.1-0.9-0.3-1.9-0.3-3v-3.8c0-0.9-0.4-1.4-0.9-1.9c0.5-0.5,0.9-1,0.9-1.9v-4.7c0-2.3-1.2-2.7-2.1-2.7h-2.4v17.9
		h1.8v-7.8h0.6c0.3,0,0.4,0.3,0.4,0.7v4.3c0,0.9,0.1,2,0.2,2.8H249.9z M244.5,119.9v-1.9h-2.1v-6.4h1.4v-1.9h-1.4V104h2.1v-2h-3.8
		v17.9H244.5z M239.8,117.2v-3.7h-1.7v3.9c0,0.5-0.2,0.7-0.5,0.7s-0.5-0.2-0.5-0.7v-13c0-0.5,0.2-0.7,0.5-0.7s0.5,0.2,0.5,0.7v3.9
		h1.7v-3.7c0-1.8-1-3-2.3-3c-1.3,0-2.3,1.1-2.3,3v12.4c0,1.8,1,3,2.3,3C238.8,120.1,239.8,119,239.8,117.2 M234.5,117.2V102h-1.6
		v15.4c0,0.5-0.2,0.7-0.6,0.7c-0.4,0-0.5-0.2-0.5-0.7V102h-1.7v15.2c0,1.8,0.9,3,2.2,3C233.6,120.1,234.5,119,234.5,117.2
		 M227.6,117.4c0,0.5-0.2,0.7-0.3,0.7h-0.8v-14.2h0.8c0.2,0,0.3,0.2,0.3,0.7V117.4z M229.4,117.2v-12.5c0-2.3-1.2-2.7-2.1-2.7h-2.5
		v17.9h2.5C228.1,119.9,229.4,119.5,229.4,117.2 M222.1,117.5c0,0.5-0.2,0.7-0.5,0.7c-0.4,0-0.6-0.2-0.6-0.7v-13
		c0-0.5,0.2-0.7,0.6-0.7c0.4,0,0.5,0.2,0.5,0.7V117.5z M223.9,117.2v-12.4c0-1.8-1.1-3-2.3-3c-1.3,0-2.4,1.1-2.4,3v12.4
		c0,1.8,1.1,3,2.4,3C222.8,120.1,223.9,119,223.9,117.2 M216.6,109.6c0,0.5-0.1,0.7-0.3,0.7h-0.6v-6.4h0.6c0.2,0,0.3,0.2,0.3,0.7
		V109.6z M218.6,119.9c-0.1-0.9-0.3-1.9-0.3-3v-3.8c0-0.9-0.4-1.4-0.9-1.9c0.5-0.5,0.8-1,0.8-1.9v-4.7c0-2.3-1.2-2.7-2.1-2.7h-2.4
		v17.9h1.8v-7.8h0.6c0.3,0,0.4,0.3,0.4,0.7v4.3c0,0.9,0.1,2,0.2,2.8H218.6z M211.3,109.8c0,0.5-0.1,0.7-0.3,0.7h-0.6v-6.6h0.6
		c0.2,0,0.3,0.2,0.3,0.7V109.8z M213,109.7v-4.9c0-2.3-1.2-2.7-2.1-2.7h-2.4v17.9h1.8v-7.6h0.6C211.9,112.3,213,111.9,213,109.7
		 M204.5,119.9v-1.9h-2.1v-6.4h1.4v-1.9h-1.4V104h2.1v-2h-3.8v17.9H204.5z M200.2,102h-1.6l-0.8,10.8L197,102h-1.7l1.5,17.9h1.8
		L200.2,102z M194.6,102h-1.8v17.9h1.8V102z M192,104.2V102h-4.3v2.1h1.3v15.7h1.7v-15.7H192z M187.1,117.2V102h-1.6v15.4
		c0,0.5-0.2,0.7-0.6,0.7c-0.4,0-0.5-0.2-0.5-0.7V102h-1.7v15.2c0,1.8,0.9,3,2.2,3C186.2,120.1,187.1,119,187.1,117.2 M181.9,117.2
		v-3.7h-1.7v3.9c0,0.5-0.2,0.7-0.5,0.7c-0.4,0-0.5-0.2-0.5-0.7v-13c0-0.5,0.2-0.7,0.5-0.7c0.4,0,0.5,0.2,0.5,0.7v3.9h1.7v-3.7
		c0-1.8-1-3-2.3-3c-1.3,0-2.3,1.1-2.3,3v12.4c0,1.8,1,3,2.3,3C180.9,120.1,181.9,119,181.9,117.2 M176.8,119.9v-1.9h-2.1v-6.4h1.4
		v-1.9h-1.4V104h2.1v-2H173v17.9H176.8z M172.4,102h-1.6l-0.8,5.8l-0.7-5.8h-1.7l1.3,8.9l-1.5,9h1.6l0.8-5.7l0.8,5.7h1.7l-1.4-9.4
		L172.4,102z M167.3,119.9v-1.9h-2.1v-6.4h1.4v-1.9h-1.4V104h2.1v-2h-3.8v17.9H167.3z"/>
	<path clip-path="url(#SVGID_2_)" fill="#FFFFFF" d="M845,75.2v-3.1h-3.4V61.4h2.3v-3.1h-2.3v-9.7h3.4v-3.3h-6.3v29.8H845z
		 M837.2,70.4c0-3.9-1.2-7.7-2.8-11.9c-1.5-4.1-2.1-4.6-2.1-9c0-0.9,0.6-1.3,1-1.3c0.4,0,1,0.4,1,1.3v4.7h2.8v-3.8
		c0-3-1.6-5.5-3.7-5.5c-3,0-4.2,2.3-4.2,5.4c0,3.8,2,8.6,3.1,11.6c1.5,3.8,1.7,5.9,1.7,9c0,1-0.4,1.6-1,1.6c-0.6,0-1.2-0.8-1.2-1.6
		v-4.2h-2.7v3.2c0,3,1.4,5.5,3.8,5.5C834.1,75.6,837.2,75.5,837.2,70.4 M825.3,71.1c0,0.8-0.3,1.2-0.9,1.2c-0.7,0-1-0.4-1-1.2V49.5
		c0-0.8,0.3-1.2,1-1.2c0.6,0,0.9,0.4,0.9,1.2V71.1z M828.4,70.7V49.9c0-3-1.8-4.9-3.9-4.9c-2.1,0-3.9,1.9-3.9,4.9v20.7
		c0,3,1.8,4.9,3.9,4.9C826.6,75.6,828.4,73.7,828.4,70.7 M816.2,58c0,0.9-0.2,1.2-0.6,1.2h-1V48.5h1c0.4,0,0.6,0.3,0.6,1.2V58z
		 M819.6,75.2c-0.2-1.5-0.4-3.1-0.4-5v-6.3c0-1.4-0.7-2.3-1.5-3.1c0.8-0.8,1.4-1.7,1.4-3.1v-7.8c0-3.8-1.9-4.5-3.5-4.5h-4v29.8h3
		v-13h0.9c0.4,0,0.7,0.5,0.7,1.2v7.2c0,1.6,0.2,3.3,0.4,4.6H819.6z M806.8,45.4h-2.6l-1.4,11.8l-1.5-11.8h-2.8L801,62v13.2h3.1V62
		L806.8,45.4z M797.7,75.2V45.4h-3.2l-2.8,18.3l-2.1-18.3h-4.1v29.8h2.6V53.9l2.2,21.3h2.1l2.4-21.2v21.2H797.7z M781,66.2h-1.6
		l0.9-12.7L781,66.2z M784.4,75.2l-2.2-29.8h-3.8l-2.1,29.8h2.6l0.3-5.6h2l0.2,5.6H784.4z M768.3,70.9c0,0.9-0.3,1.2-0.6,1.2h-1.3
		V48.5h1.3c0.3,0,0.6,0.3,0.6,1.2V70.9z M771.3,70.7V49.9c0-3.8-2.1-4.5-3.6-4.5h-4.2v29.8h4.2C769.2,75.2,771.3,74.5,771.3,70.7
		 M762.1,75.2V45.4h-2.4v16.7l-3.2-16.7h-2.6v29.8h2.5V58.7l3.7,16.5H762.1z M749.3,66.2h-1.6l0.9-12.7L749.3,66.2z M752.8,75.2
		l-2.2-29.8h-3.8l-2.1,29.8h2.6l0.3-5.6h2l0.2,5.6H752.8z M739.9,75.2v-3.1h-3.4V61.4h2.4v-3.1h-2.4v-9.7h3.4v-3.3h-6.3v29.8H739.9z
		 M729.2,71.1c0,0.8-0.3,1.2-0.9,1.2c-0.7,0-1-0.4-1-1.2V49.5c0-0.8,0.3-1.2,1-1.2c0.6,0,0.9,0.4,0.9,1.2V71.1z M732.3,70.7V49.9
		c0-3-1.8-4.9-3.9-4.9c-2.1,0-3.9,1.9-3.9,4.9v20.7c0,3,1.8,4.9,3.9,4.9C730.5,75.6,732.3,73.7,732.3,70.7 M723,70.7v-6.1h-2.9v6.6
		c0,0.8-0.3,1.2-0.9,1.2c-0.6,0-0.9-0.4-0.9-1.2V49.5c0-0.8,0.3-1.2,0.9-1.2c0.6,0,0.9,0.4,0.9,1.2V56h2.9v-6.1c0-3-1.7-4.9-3.8-4.9
		c-2.1,0-3.8,1.9-3.8,4.9v20.7c0,3,1.6,4.9,3.8,4.9C721.4,75.6,723,73.7,723,70.7 M711.1,58c0,0.9-0.2,1.2-0.6,1.2h-1V48.5h1
		c0.4,0,0.6,0.3,0.6,1.2V58z M714.5,75.2c-0.2-1.5-0.4-3.1-0.4-5v-6.3c0-1.4-0.7-2.3-1.5-3.1c0.8-0.8,1.4-1.7,1.4-3.1v-7.8
		c0-3.8-1.9-4.5-3.5-4.5h-4v29.8h3v-13h0.9c0.4,0,0.7,0.5,0.7,1.2v7.2c0,1.6,0.2,3.3,0.4,4.6H714.5z M705.5,75.2v-3.1h-3.4V61.4h2.4
		v-3.1h-2.4v-9.7h3.4v-3.3h-6.3v29.8H705.5z M698.2,45.4h-2.7l-1.4,18l-1.3-18H690l2.6,29.8h3L698.2,45.4z M690,60.3h-4.6V64h4.6
		V60.3z M684,75.2V45.4h-2.4v16.7l-3.2-16.7h-2.6v29.8h2.5V58.7l3.7,16.5H684z M671.3,66.2h-1.6l0.9-12.7L671.3,66.2z M674.7,75.2
		l-2.2-29.8h-3.8l-2.1,29.8h2.6l0.3-5.6h2l0.2,5.6H674.7z M665.9,75.2v-3.1h-3.4V61.4h2.4v-3.1h-2.4v-9.7h3.4v-3.3h-6.3v29.8H665.9z
		 M658.7,75.2v-3.1h-3.4V45.4h-3v29.8H658.7z M647.3,75.2v-3.1h-3.4V61.4h2.3v-3.1h-2.3v-9.7h3.4v-3.3H641v29.8H647.3z M639.4,45.4
		h-3v29.8h3V45.4z M631.9,58c0,0.9-0.2,1.2-0.6,1.2h-1V48.5h1c0.4,0,0.6,0.3,0.6,1.2V58z M635.3,75.2c-0.2-1.5-0.4-3.1-0.4-5v-6.3
		c0-1.4-0.7-2.3-1.5-3.1c0.8-0.8,1.4-1.7,1.4-3.1v-7.8c0-3.8-1.9-4.5-3.5-4.5h-4v29.8h3v-13h0.9c0.4,0,0.7,0.5,0.7,1.2v7.2
		c0,1.6,0.2,3.3,0.4,4.6H635.3z M622.8,66.2h-1.6l0.9-12.7L622.8,66.2z M626.3,75.2l-2.2-29.8h-3.8l-2.1,29.8h2.6l0.3-5.6h2l0.2,5.6
		H626.3z M617,75.2V45.4h-3.2L611,63.7L609,45.4h-4.1v29.8h2.6V53.9l2.2,21.3h2.1l2.4-21.2v21.2H617z M603.8,75.2v-3.1h-3.4V61.4
		h2.4v-3.1h-2.4v-9.7h3.4v-3.3h-6.3v29.8H603.8z M596,75.2V45.4h-2.4v16.7l-3.2-16.7h-2.6v29.8h2.5V58.7l3.7,16.5H596z M586.4,75.2
		V45.4H584v16.7l-3.2-16.7h-2.6v29.8h2.5V58.7l3.7,16.5H586.4z M573.6,66.2h-1.6l0.9-12.7L573.6,66.2z M577.1,75.2l-2.2-29.8h-3.8
		l-2.1,29.8h2.6l0.3-5.6h2l0.2,5.6H577.1z"/>
	<path clip-path="url(#SVGID_2_)" fill="#C4D600" d="M562.3,69.8h-0.9l0.5-7.6L562.3,69.8z M564.3,75.2L563,57.3h-2.3l-1.3,17.9h1.5
		l0.2-3.4h1.2l0.1,3.4H564.3z M557,64.9c0,0.5-0.1,0.7-0.3,0.7h-0.6v-6.4h0.6c0.2,0,0.3,0.2,0.3,0.7V64.9z M559,75.2
		c-0.1-0.9-0.3-1.9-0.3-3v-3.8c0-0.9-0.4-1.4-0.9-1.9c0.5-0.5,0.8-1,0.8-1.9V60c0-2.3-1.2-2.7-2.1-2.7h-2.4v17.9h1.8v-7.8h0.6
		c0.3,0,0.4,0.3,0.4,0.7v4.3c0,0.9,0.1,2,0.2,2.8H559z M553.6,75.2v-1.9h-2.1v-6.4h1.4v-1.9h-1.4v-5.8h2.1v-2h-3.8v17.9H553.6z
		 M549,75.2V57.3H547l-1.7,11l-1.2-11h-2.5v17.9h1.5V62.4l1.3,12.8h1.3l1.5-12.7v12.7H549z M539,69.8H538l0.5-7.6L539,69.8z
		 M541,75.2l-1.3-17.9h-2.3l-1.3,17.9h1.5l0.2-3.4h1.2l0.1,3.4H541z M535.5,72.5v-3.7h-1.7v3.9c0,0.5-0.2,0.7-0.5,0.7
		c-0.4,0-0.5-0.2-0.5-0.7v-13c0-0.5,0.2-0.7,0.5-0.7c0.4,0,0.5,0.2,0.5,0.7v3.9h1.7V60c0-1.8-1-3-2.3-3c-1.3,0-2.3,1.1-2.3,3v12.4
		c0,1.8,1,3,2.3,3C534.5,75.4,535.5,74.3,535.5,72.5"/>
	<path clip-path="url(#SVGID_2_)" fill="#FFFFFF" d="M526.4,45.4h-2.6l-1.4,11.8l-1.5-11.8h-2.8l2.6,16.6v13.2h3.1V62L526.4,45.4z
		 M514.9,66.2h-1.6l0.9-12.7L514.9,66.2z M518.4,75.2l-2.2-29.8h-3.8l-2.1,29.8h2.6l0.3-5.6h2l0.2,5.6H518.4z M509.7,75.2l-2.1-16.1
		l1.8-13.7h-2.8l-1.8,13.9V45.4h-2.9v29.8h2.9v-8.3l0.7-3.7l1.3,12H509.7z M500.4,70.7v-6.1h-2.9v6.6c0,0.8-0.3,1.2-0.9,1.2
		c-0.6,0-0.9-0.4-0.9-1.2V49.5c0-0.8,0.3-1.2,0.9-1.2c0.6,0,0.9,0.4,0.9,1.2V56h2.9v-6.1c0-3-1.7-4.9-3.8-4.9
		c-2.1,0-3.8,1.9-3.8,4.9v20.7c0,3,1.6,4.9,3.8,4.9C498.7,75.6,500.4,73.7,500.4,70.7 M488.4,66.2h-1.6l0.9-12.7L488.4,66.2z
		 M491.8,75.2l-2.2-29.8h-3.8l-2.1,29.8h2.6l0.3-5.6h2l0.2,5.6H491.8z M482.6,75.2V45.4h-3.2l-2.8,18.3l-2.1-18.3h-4.1v29.8h2.6
		V53.9l2.2,21.3h2.1l2.4-21.2v21.2H482.6z M465,75.2V45.4h-2.4v16.7l-3.2-16.7h-2.6v29.8h2.5V58.7l3.7,16.5H465z M452.2,66.2h-1.6
		l0.9-12.7L452.2,66.2z M455.7,75.2l-2.2-29.8h-3.8l-2.1,29.8h2.6l0.3-5.6h2l0.2,5.6H455.7z M447,75.2v-3.1h-3.4V45.4h-3v29.8H447z
		 M436.2,66.2h-1.6l0.9-12.7L436.2,66.2z M439.6,75.2l-2.2-29.8h-3.8l-2.1,29.8h2.6l0.3-5.6h2l0.2,5.6H439.6z M423.5,70.9
		c0,0.9-0.3,1.2-0.6,1.2h-1.3V48.5h1.3c0.3,0,0.6,0.3,0.6,1.2V70.9z M426.5,70.7V49.9c0-3.8-2.1-4.5-3.6-4.5h-4.2v29.8h4.2
		C424.4,75.2,426.5,74.5,426.5,70.7 M417.2,75.2V45.4h-2.4v16.7l-3.2-16.7H409v29.8h2.5V58.7l3.7,16.5H417.2z M404.5,66.2h-1.6
		l0.9-12.7L404.5,66.2z M407.9,75.2l-2.2-29.8h-3.8l-2.1,29.8h2.6l0.3-5.6h2l0.2,5.6H407.9z M394.7,75.2V45.4h-2.4v16.7l-3.2-16.7
		h-2.6v29.8h2.5V58.7l3.7,16.5H394.7z M382.1,71.1c0,0.8-0.3,1.2-0.9,1.2c-0.7,0-1-0.4-1-1.2V49.5c0-0.8,0.3-1.2,1-1.2
		c0.6,0,0.9,0.4,0.9,1.2V71.1z M385.1,70.7V49.9c0-3-1.8-4.9-3.9-4.9c-2.1,0-3.9,1.9-3.9,4.9v20.7c0,3,1.8,4.9,3.9,4.9
		C383.3,75.6,385.1,73.7,385.1,70.7 M376.9,45.4h-2.6l-1.4,9.6l-1.2-9.6h-2.8l2.2,14.9l-2.5,14.9h2.7l1.4-9.5l1.3,9.5h2.8l-2.3-15.7
		L376.9,45.4z M367.9,45.4h-3v29.8h3V45.4z M360.4,70.9c0,0.9-0.3,1.2-0.6,1.2h-1.3V48.5h1.3c0.3,0,0.6,0.3,0.6,1.2V70.9z
		 M363.4,70.7V49.9c0-3.8-2.1-4.5-3.6-4.5h-4.2v29.8h4.2C361.4,75.2,363.4,74.5,363.4,70.7 M350.6,75.2v-3.1h-3.4V61.4h2.3v-3.1
		h-2.3v-9.7h3.4v-3.3h-6.3v29.8H350.6z M342.8,70.4c0-3.9-1.2-7.7-2.8-11.9c-1.5-4.1-2.1-4.6-2.1-9c0-0.9,0.6-1.3,1-1.3
		c0.4,0,1,0.4,1,1.3v4.7h2.8v-3.8c0-3-1.6-5.5-3.7-5.5c-3,0-4.2,2.3-4.2,5.4c0,3.8,2,8.6,3.1,11.6c1.5,3.8,1.7,5.9,1.7,9
		c0,1-0.4,1.6-1,1.6c-0.6,0-1.2-0.8-1.2-1.6v-4.2h-2.7v3.2c0,3,1.4,5.5,3.8,5.5C339.7,75.6,342.8,75.5,342.8,70.4 M333.9,70.4
		c0-3.9-1.2-7.7-2.8-11.9c-1.5-4.1-2.1-4.6-2.1-9c0-0.9,0.6-1.3,1-1.3c0.4,0,1,0.4,1,1.3v4.7h2.8v-3.8c0-3-1.6-5.5-3.7-5.5
		c-3,0-4.2,2.3-4.2,5.4c0,3.8,2,8.6,3.1,11.6c1.5,3.8,1.7,5.9,1.7,9c0,1-0.4,1.6-1,1.6c-0.6,0-1.2-0.8-1.2-1.6v-4.2h-2.7v3.2
		c0,3,1.4,5.5,3.8,5.5C330.7,75.6,333.9,75.5,333.9,70.4 M325.3,75.2v-3.1h-3.4V61.4h2.4v-3.1h-2.4v-9.7h3.4v-3.3H319v29.8H325.3z
		 M317.6,70.7V45.4h-2.8v25.9c0,0.8-0.3,1.2-0.9,1.2c-0.6,0-0.9-0.4-0.9-1.2v-7.1h-2.8v6.5c0,3,1.6,4.9,3.8,4.9
		C316,75.6,317.6,73.7,317.6,70.7"/>
	<path clip-path="url(#SVGID_2_)" fill="#C4D600" d="M305.5,57.3h-1.6l-0.9,7.1l-0.9-7.1h-1.7l1.5,9.9v7.9h1.9v-7.9L305.5,57.3z
		 M298.3,72.6c0,0.5-0.1,0.7-0.3,0.7h-0.6V67h0.6c0.2,0,0.3,0.2,0.3,0.7V72.6z M298.3,64.6c0,0.5-0.1,0.7-0.3,0.7h-0.6v-6.1h0.6
		c0.2,0,0.3,0.2,0.3,0.7V64.6z M300,72.5V68c0-0.9-0.3-1.4-0.9-1.9c0.5-0.5,0.9-1,0.9-1.9V60c0-2.3-1.2-2.7-2.1-2.7h-2.4v17.9h2.4
		C298.8,75.2,300,74.8,300,72.5 M289.5,72.6c0,0.5-0.2,0.7-0.3,0.7h-0.8V59.2h0.8c0.2,0,0.3,0.2,0.3,0.7V72.6z M291.3,72.5V60
		c0-2.3-1.2-2.7-2.1-2.7h-2.5v17.9h2.5C290.1,75.2,291.3,74.8,291.3,72.5 M286,75.2v-1.9H284v-6.4h1.4v-1.9H284v-5.8h2.1v-2h-3.8
		v17.9H286z M281.5,59.5v-2.1h-4.3v2.1h1.3v15.7h1.7V59.5H281.5z M276.5,57.3h-1.8v17.9h1.8V57.3z M272,72.6c0,0.5-0.2,0.7-0.3,0.7
		h-0.8V59.2h0.8c0.2,0,0.3,0.2,0.3,0.7V72.6z M273.8,72.5V60c0-2.3-1.2-2.7-2.1-2.7h-2.5v17.9h2.5C272.6,75.2,273.8,74.8,273.8,72.5
		 M268.5,75.2v-1.9h-2.1v-6.4h1.4v-1.9h-1.4v-5.8h2.1v-2h-3.8v17.9H268.5z"/>
	<path clip-path="url(#SVGID_2_)" fill="#FFFFFF" d="M259.6,70.4c0-3.9-1.2-7.7-2.8-11.9c-1.5-4.1-2.1-4.6-2.1-9
		c0-0.9,0.6-1.3,1-1.3c0.4,0,1,0.4,1,1.3v4.7h2.8v-3.8c0-3-1.6-5.5-3.7-5.5c-3,0-4.2,2.3-4.2,5.4c0,3.8,2,8.6,3.1,11.6
		c1.5,3.8,1.7,5.9,1.7,9c0,1-0.4,1.6-1,1.6c-0.6,0-1.2-0.8-1.2-1.6v-4.2h-2.7v3.2c0,3,1.4,5.5,3.8,5.5
		C256.4,75.6,259.6,75.5,259.6,70.4 M251,75.2v-3.1h-3.4V61.4h2.3v-3.1h-2.3v-9.7h3.4v-3.3h-6.3v29.8H251z M243.3,75.2V45.4h-2.4
		v16.7l-3.2-16.7H235v29.8h2.5V58.7l3.7,16.5H243.3z M230.7,71.1c0,0.8-0.3,1.2-0.9,1.2c-0.7,0-1-0.4-1-1.2V49.5
		c0-0.8,0.3-1.2,1-1.2c0.6,0,0.9,0.4,0.9,1.2V71.1z M233.7,70.7V49.9c0-3-1.8-4.9-3.9-4.9c-2.1,0-3.9,1.9-3.9,4.9v20.7
		c0,3,1.8,4.9,3.9,4.9C231.9,75.6,233.7,73.7,233.7,70.7 M224.6,70.7V45.4h-2.8v25.9c0,0.8-0.3,1.2-0.9,1.2c-0.6,0-0.9-0.4-0.9-1.2
		v-7.1h-2.8v6.5c0,3,1.6,4.9,3.8,4.9C223,75.6,224.6,73.7,224.6,70.7 M212.4,45.4h-2.6l-1.4,11.8l-1.5-11.8H204l2.6,16.6v13.2h3.1
		V62L212.4,45.4z M203.7,75.2v-3.1h-3.4V61.4h2.3v-3.1h-2.3v-9.7h3.4v-3.3h-6.3v29.8H203.7z M196.5,75.2v-3.1h-3.4V45.4h-3v29.8
		H196.5z M188.7,75.2V45.4h-2.9v13.4H184V45.4H181v29.8h2.9v-13h1.9v13H188.7z M179.6,70.4c0-3.9-1.2-7.7-2.8-11.9
		c-1.5-4.1-2.1-4.6-2.1-9c0-0.9,0.6-1.3,1-1.3c0.4,0,1,0.4,1,1.3v4.7h2.8v-3.8c0-3-1.6-5.5-3.7-5.5c-3,0-4.2,2.3-4.2,5.4
		c0,3.8,2,8.6,3.1,11.6c1.5,3.8,1.7,5.9,1.7,9c0,1-0.4,1.6-1,1.6c-0.6,0-1.2-0.8-1.2-1.6v-4.2h-2.7v3.2c0,3,1.4,5.5,3.8,5.5
		C176.5,75.6,179.6,75.5,179.6,70.4 M167.6,66.2H166l0.9-12.7L167.6,66.2z M171,75.2l-2.2-29.8H165l-2.1,29.8h2.6l0.3-5.6h2l0.2,5.6
		H171z M154.9,70.9c0,0.9-0.3,1.2-0.6,1.2H153V48.5h1.3c0.3,0,0.6,0.3,0.6,1.2V70.9z M157.9,70.7V49.9c0-3.8-2.1-4.5-3.6-4.5h-4.2
		v29.8h4.2C155.8,75.2,157.9,74.5,157.9,70.7 M148.7,75.2V45.4h-2.4v16.7l-3.2-16.7h-2.6v29.8h2.5V58.7l3.7,16.5H148.7z M135.9,66.2
		h-1.6l0.9-12.7L135.9,66.2z M139.4,75.2l-2.2-29.8h-3.8l-2.1,29.8h2.6l0.3-5.6h2l0.2,5.6H139.4z M123.2,70.9c0,0.9-0.3,1.2-0.6,1.2
		h-1.3V48.5h1.3c0.3,0,0.6,0.3,0.6,1.2V70.9z M126.2,70.7V49.9c0-3.8-2.1-4.5-3.6-4.5h-4.2v29.8h4.2
		C124.2,75.2,126.2,74.5,126.2,70.7 M117,75.2V45.4h-2.4v16.7l-3.2-16.7h-2.6v29.8h2.5V58.7l3.7,16.5H117z M104.4,71.1
		c0,0.8-0.3,1.2-0.9,1.2c-0.7,0-1-0.4-1-1.2V49.5c0-0.8,0.3-1.2,1-1.2c0.6,0,0.9,0.4,0.9,1.2V71.1z M107.4,70.7V49.9
		c0-3-1.8-4.9-3.9-4.9c-2.1,0-3.9,1.9-3.9,4.9v20.7c0,3,1.8,4.9,3.9,4.9C105.6,75.6,107.4,73.7,107.4,70.7 M95.3,70.9
		c0,0.9-0.2,1.2-0.6,1.2h-1V61.5h1c0.4,0,0.6,0.3,0.6,1.2V70.9z M95.3,57.5c0,0.9-0.2,1.2-0.6,1.2h-1V48.5h1c0.4,0,0.6,0.3,0.6,1.2
		V57.5z M98.2,70.7v-7.6c0-1.4-0.6-2.3-1.5-3.1c0.9-0.8,1.5-1.7,1.5-3.1v-7c0-3.8-2-4.5-3.5-4.5h-4v29.8h4
		C96.2,75.2,98.2,74.5,98.2,70.7 M82.4,70.9c0,0.9-0.3,1.2-0.6,1.2h-1.3V48.5h1.3c0.3,0,0.6,0.3,0.6,1.2V70.9z M85.4,70.7V49.9
		c0-3.8-2.1-4.5-3.6-4.5h-4.2v29.8h4.2C83.4,75.2,85.4,74.5,85.4,70.7 M76.1,45.4h-3v29.8h3V45.4z M72.1,45.4h-2.7l-1.4,18l-1.3-18
		h-2.8l2.6,29.8h3L72.1,45.4z M60.2,66.2h-1.6l0.9-12.7L60.2,66.2z M63.7,75.2l-2.2-29.8h-3.8l-2.1,29.8h2.6l0.3-5.6h2l0.2,5.6H63.7
		z M51.6,70.9c0,0.9-0.3,1.2-0.6,1.2h-1.3V48.5H51c0.3,0,0.6,0.3,0.6,1.2V70.9z M54.5,70.7V49.9c0-3.8-2.1-4.5-3.6-4.5h-4.2v29.8H51
		C52.5,75.2,54.5,74.5,54.5,70.7"/>
	<path clip-path="url(#SVGID_2_)" fill="#C4D600" d="M42,57.3h-1.6l-0.9,7.1l-0.9-7.1h-1.7l1.5,9.9v7.9h1.9v-7.9L42,57.3z
		 M34.7,72.6c0,0.5-0.1,0.7-0.3,0.7h-0.6V67h0.6c0.2,0,0.3,0.2,0.3,0.7V72.6z M34.7,64.6c0,0.5-0.1,0.7-0.3,0.7h-0.6v-6.1h0.6
		c0.2,0,0.3,0.2,0.3,0.7V64.6z M36.5,72.5V68c0-0.9-0.3-1.4-0.9-1.9c0.5-0.5,0.9-1,0.9-1.9V60c0-2.3-1.2-2.7-2.1-2.7H32v17.9h2.4
		C35.3,75.2,36.5,74.8,36.5,72.5 M27.7,75.2V57.3h-1.9l-1.7,11l-1.2-11h-2.5v17.9H22V62.4l1.3,12.8h1.3L26,62.5v12.7H27.7z
		 M19.9,75.2v-1.9h-2v-16h-1.8v17.9H19.9z M15.2,57.3h-1.8v17.9h1.8V57.3z M12.8,59.3v-2H8.9v17.9h1.7v-8h1.6v-1.9h-1.6v-6H12.8z
		 M2.8,69.8H1.9l0.5-7.6L2.8,69.8z M4.9,75.2L3.6,57.3H1.3L0,75.2h1.5l0.2-3.4h1.2l0.1,3.4H4.9z"/>
	<path clip-path="url(#SVGID_2_)" fill="#FFFFFF" d="M752.4,4.3V0.7h-2.7v3.7h1.2l-1.3,3.4h0.9L752.4,4.3z M756.2,4.3V0.7h-2.7v3.7
		h1.2l-1.3,3.4h0.9L756.2,4.3z M748.4,30.5V15.9h-3.6v2.8h0.8v8c0,0.8-0.4,1.2-1,1.2c-0.6,0-1-0.4-1-1.2v-22c0-0.8,0.3-1.2,0.9-1.2
		c0.7,0,0.9,0.4,0.9,1.2v6.4h2.9V5.2c0-3-1.7-4.9-3.8-4.9c-2.1,0-3.8,1.9-3.8,4.9v20.7c0,3.4,1.3,4.9,3.4,4.9c0.8,0,1.8-0.4,2.1-1.2
		l0.3,0.8H748.4z M739.4,30.5V0.7H737v16.7l-3.2-16.7h-2.6v29.8h2.5V14l3.7,16.5H739.4z M729.6,0.7h-3v29.8h3V0.7z M725.1,30.5V0.7
		h-2.9v13.4h-1.9V0.7h-2.9v29.8h2.9v-13h1.9v13H725.1z M716.3,4.2V0.7h-7.1v3.6h2.2v26.2h2.9V4.2H716.3z M701.1,26.2
		c0,0.9-0.3,1.2-0.6,1.2h-1.3V3.8h1.3c0.3,0,0.6,0.3,0.6,1.2V26.2z M704.1,26V5.2c0-3.8-2.1-4.5-3.6-4.5h-4.2v29.8h4.2
		C702,30.5,704.1,29.8,704.1,26 M695.4,30.5v-3.1h-3.4V0.7h-3v29.8H695.4z M687.6,0.7h-3v29.8h3V0.7z M683.4,0.7h-2.7l-1.3,15.9
		L678,0.7h-1.5l-1.2,15.9L674,0.7h-2.8l2.7,29.8h2.1l1.3-14.8l1.3,14.8h2L683.4,0.7z M666.5,4.2V0.7h-7.1v3.6h2.2v26.2h2.9V4.2
		H666.5z M658.2,25.9v-6.1h-2.9v6.6c0,0.8-0.3,1.2-0.9,1.2c-0.6,0-0.9-0.4-0.9-1.2V4.8c0-0.8,0.3-1.2,0.9-1.2c0.6,0,0.9,0.4,0.9,1.2
		v6.6h2.9V5.2c0-3-1.7-4.9-3.8-4.9c-2.1,0-3.8,1.9-3.8,4.9v20.7c0,3,1.6,4.9,3.8,4.9C656.5,30.9,658.2,29,658.2,25.9 M649.6,30.5
		v-3.1h-3.4V16.7h2.4v-3.1h-2.4V4h3.4V0.7h-6.3v29.8H649.6z M642,25.9V0.7h-2.8v25.9c0,0.8-0.3,1.2-0.9,1.2c-0.6,0-0.9-0.4-0.9-1.2
		v-7.1h-2.8v6.5c0,3,1.6,4.9,3.8,4.9C640.4,30.9,642,29,642,25.9 M630.2,26.4c0,0.8-0.3,1.2-0.9,1.2c-0.7,0-1-0.4-1-1.2V4.8
		c0-0.8,0.3-1.2,1-1.2c0.6,0,0.9,0.4,0.9,1.2V26.4z M633.3,25.9V5.2c0-3-1.8-4.9-3.9-4.9c-2.1,0-3.9,1.9-3.9,4.9v20.7
		c0,3,1.8,4.9,3.9,4.9C631.5,30.9,633.3,29,633.3,25.9 M621.1,13.3c0,0.9-0.2,1.2-0.6,1.2h-1V3.8h1c0.4,0,0.6,0.3,0.6,1.2V13.3z
		 M624.5,30.5c-0.2-1.5-0.4-3.1-0.4-5v-6.3c0-1.4-0.7-2.3-1.5-3.1c0.8-0.8,1.4-1.7,1.4-3.1V5.2c0-3.8-1.9-4.5-3.5-4.5h-4v29.8h3v-13
		h0.9c0.4,0,0.7,0.5,0.7,1.2v7.2c0,1.6,0.2,3.3,0.4,4.6H624.5z M612.3,13.6c0,0.9-0.2,1.2-0.6,1.2h-1v-11h1c0.4,0,0.6,0.3,0.6,1.2
		V13.6z M615.2,13.4V5.2c0-3.8-1.9-4.5-3.5-4.5h-4v29.8h3V17.8h1C613.2,17.8,615.2,17.1,615.2,13.4 M602.9,0H602l-2.2,3.4V7h2.6V3.4
		h-0.8L602.9,0z M606.7,0h-0.9l-2.2,3.4V7h2.6V3.4h-0.8L606.7,0z M594.4,30.5V0.7H592v16.7l-3.2-16.7h-2.6v29.8h2.5V14l3.7,16.5
		H594.4z M581.8,26.4c0,0.8-0.3,1.2-0.9,1.2c-0.7,0-1-0.4-1-1.2V4.8c0-0.8,0.3-1.2,1-1.2c0.6,0,0.9,0.4,0.9,1.2V26.4z M584.8,25.9
		V5.2c0-3-1.8-4.9-3.9-4.9c-2.1,0-3.9,1.9-3.9,4.9v20.7c0,3,1.8,4.9,3.9,4.9C583,30.9,584.8,29,584.8,25.9 M575.5,0.7h-3v29.8h3V0.7
		z M571.3,4.2V0.7h-7.1v3.6h2.2v26.2h2.9V4.2H571.3z M563,25.9v-6.1h-2.9v6.6c0,0.8-0.3,1.2-0.9,1.2c-0.6,0-0.9-0.4-0.9-1.2V4.8
		c0-0.8,0.3-1.2,0.9-1.2c0.6,0,0.9,0.4,0.9,1.2v6.6h2.9V5.2c0-3-1.7-4.9-3.8-4.9c-2.1,0-3.8,1.9-3.8,4.9v20.7c0,3,1.6,4.9,3.8,4.9
		C561.3,30.9,563,29,563,25.9 M554.1,25.9V0.7h-2.6v25.7c0,0.8-0.3,1.2-0.9,1.2c-0.6,0-0.9-0.4-0.9-1.2V0.7h-2.8v25.3
		c0,3,1.6,4.9,3.7,4.9C552.6,30.9,554.1,29,554.1,25.9 M542.6,26.2c0,0.9-0.3,1.2-0.6,1.2h-1.3V3.8h1.3c0.3,0,0.6,0.3,0.6,1.2V26.2z
		 M545.5,26V5.2c0-3.8-2.1-4.5-3.6-4.5h-4.2v29.8h4.2C543.5,30.5,545.5,29.8,545.5,26 M533.4,26.4c0,0.8-0.3,1.2-0.9,1.2
		c-0.7,0-1-0.4-1-1.2V4.8c0-0.8,0.3-1.2,1-1.2c0.6,0,0.9,0.4,0.9,1.2V26.4z M536.4,25.9V5.2c0-3-1.8-4.9-3.9-4.9
		c-2.1,0-3.9,1.9-3.9,4.9v20.7c0,3,1.8,4.9,3.9,4.9C534.6,30.9,536.4,29,536.4,25.9 M524.2,13.3c0,0.9-0.2,1.2-0.6,1.2h-1V3.8h1
		c0.4,0,0.6,0.3,0.6,1.2V13.3z M527.6,30.5c-0.2-1.5-0.4-3.1-0.4-5v-6.3c0-1.4-0.7-2.3-1.5-3.1c0.8-0.8,1.4-1.7,1.4-3.1V5.2
		c0-3.8-1.9-4.5-3.5-4.5h-4v29.8h3v-13h0.9c0.4,0,0.7,0.5,0.7,1.2v7.2c0,1.6,0.2,3.3,0.4,4.6H527.6z M515.4,13.6
		c0,0.9-0.2,1.2-0.6,1.2h-1v-11h1c0.4,0,0.6,0.3,0.6,1.2V13.6z M518.3,13.4V5.2c0-3.8-1.9-4.5-3.5-4.5h-4v29.8h3V17.8h1
		C516.4,17.8,518.3,17.1,518.3,13.4 M505.4,25.7c0-3.9-1.2-7.7-2.8-11.8c-1.5-4.1-2.1-4.6-2.1-9c0-0.9,0.6-1.3,1-1.3
		c0.4,0,1,0.4,1,1.3v4.7h2.8V5.8c0-3-1.6-5.5-3.7-5.5c-3,0-4.2,2.3-4.2,5.4c0,3.8,2,8.6,3.1,11.6c1.5,3.8,1.7,5.9,1.7,9
		c0,1-0.4,1.6-1,1.6c-0.6,0-1.2-0.8-1.2-1.6v-4.2h-2.7v3.2c0,3,1.4,5.5,3.8,5.5C502.3,30.9,505.4,30.8,505.4,25.7 M496.5,30.5V0.7
		h-2.4v16.7l-3.2-16.7h-2.6v29.8h2.5V14l3.7,16.5H496.5z M483.9,26.4c0,0.8-0.3,1.2-0.9,1.2c-0.7,0-1-0.4-1-1.2V4.8
		c0-0.8,0.3-1.2,1-1.2c0.6,0,0.9,0.4,0.9,1.2V26.4z M486.9,25.9V5.2c0-3-1.8-4.9-3.9-4.9s-3.9,1.9-3.9,4.9v20.7c0,3,1.8,4.9,3.9,4.9
		S486.9,29,486.9,25.9 M477.7,0.7h-3v29.8h3V0.7z M473.7,30.5v-3.1h-3.4V0.7h-3v29.8H473.7z M462,30.5V0.7h-2.4v16.7l-3.2-16.7h-2.6
		v29.8h2.5V14l3.7,16.5H462z M452.7,30.5v-3.1h-3.4V16.7h2.4v-3.1h-2.4V4h3.4V0.7h-6.3v29.8H452.7z M445.3,30.5v-3.1h-3.4V16.7h2.3
		v-3.1h-2.3V4h3.4V0.7h-6.3v29.8H445.3z M434.5,13.3c0,0.9-0.2,1.2-0.6,1.2h-1V3.8h1c0.4,0,0.6,0.3,0.6,1.2V13.3z M437.9,30.5
		c-0.2-1.5-0.4-3.1-0.4-5v-6.3c0-1.4-0.7-2.3-1.5-3.1c0.8-0.8,1.4-1.7,1.4-3.1V5.2c0-3.8-1.9-4.5-3.5-4.5h-4v29.8h3v-13h0.9
		c0.4,0,0.7,0.5,0.7,1.2v7.2c0,1.6,0.2,3.3,0.4,4.6H437.9z M428.8,30.5V15.9h-3.6v2.8h0.8v8c0,0.8-0.4,1.2-1,1.2c-0.6,0-1-0.4-1-1.2
		v-22c0-0.8,0.3-1.2,0.9-1.2c0.7,0,0.9,0.4,0.9,1.2v6.4h2.9V5.2c0-3-1.7-4.9-3.8-4.9c-2.1,0-3.8,1.9-3.8,4.9v20.7
		c0,3.4,1.3,4.9,3.4,4.9c0.8,0,1.8-0.4,2.1-1.2l0.3,0.8H428.8z"/>
	<path clip-path="url(#SVGID_2_)" fill="#C4D600" d="M414.2,25.1h-0.9l0.5-7.6L414.2,25.1z M416.2,30.5l-1.3-17.9h-2.3l-1.3,17.9
		h1.5l0.2-3.4h1.2l0.1,3.4H416.2z M407.4,14.7v-2.1h-4.3v2.1h1.3v15.7h1.7V14.7H407.4z M402.5,30.5V12.6H401v10l-1.9-10h-1.6v17.9
		h1.5v-9.9l2.2,9.9H402.5z M396.9,30.5v-1.9h-2.1v-6.4h1.4v-1.9h-1.4v-5.8h2.1v-2h-3.8v17.9H396.9z M392.2,27.6
		c0-2.3-0.7-4.6-1.7-7.1c-0.9-2.4-1.3-2.8-1.3-5.4c0-0.5,0.3-0.8,0.6-0.8c0.2,0,0.6,0.3,0.6,0.8v2.8h1.7v-2.3c0-1.8-0.9-3.3-2.2-3.3
		c-1.8,0-2.5,1.4-2.5,3.3c0,2.3,1.2,5.2,1.9,7c0.9,2.3,1,3.6,1,5.4c0,0.6-0.3,0.9-0.6,0.9c-0.4,0-0.7-0.5-0.7-0.9v-2.5h-1.6v1.9
		c0,1.8,0.8,3.3,2.3,3.3C390.3,30.7,392.2,30.7,392.2,27.6 M387.1,30.5v-1.9H385v-6.4h1.4v-1.9H385v-5.8h2.1v-2h-3.8v17.9H387.1z
		 M380.6,20.2c0,0.5-0.1,0.7-0.3,0.7h-0.6v-6.4h0.6c0.2,0,0.3,0.2,0.3,0.7V20.2z M382.7,30.5c-0.1-0.9-0.3-1.9-0.3-3v-3.8
		c0-0.8-0.4-1.4-0.9-1.9c0.5-0.5,0.9-1,0.9-1.9v-4.7c0-2.3-1.2-2.7-2.1-2.7h-2.4v17.9h1.8v-7.8h0.6c0.3,0,0.4,0.3,0.4,0.7v4.3
		c0,0.9,0.1,2,0.2,2.8H382.7z M375.4,20.3c0,0.5-0.1,0.7-0.3,0.7h-0.6v-6.6h0.6c0.2,0,0.3,0.2,0.3,0.7V20.3z M377.1,20.2v-4.9
		c0-2.3-1.2-2.7-2.1-2.7h-2.4v17.9h1.8v-7.6h0.6C375.9,22.9,377.1,22.5,377.1,20.2"/>
	<path clip-path="url(#SVGID_2_)" fill="#FFFFFF" d="M367.5,25.7c0-3.9-1.2-7.7-2.8-11.8c-1.5-4.1-2.1-4.6-2.1-9
		c0-0.9,0.6-1.3,1-1.3c0.4,0,1,0.4,1,1.3v4.7h2.8V5.8c0-3-1.6-5.5-3.7-5.5c-3,0-4.2,2.3-4.2,5.4c0,3.8,2,8.6,3.1,11.6
		c1.5,3.8,1.7,5.9,1.7,9c0,1-0.4,1.6-1,1.6c-0.6,0-1.2-0.8-1.2-1.6v-4.2h-2.7v3.2c0,3,1.4,5.5,3.8,5.5
		C364.4,30.9,367.5,30.8,367.5,25.7 M358.6,30.5V0.7h-2.4v16.7L353,0.7h-2.6v29.8h2.5V14l3.7,16.5H358.6z M346,26.4
		c0,0.8-0.3,1.2-0.9,1.2c-0.7,0-1-0.4-1-1.2V4.8c0-0.8,0.3-1.2,1-1.2c0.6,0,0.9,0.4,0.9,1.2V26.4z M349,25.9V5.2
		c0-3-1.8-4.9-3.9-4.9c-2.1,0-3.9,1.9-3.9,4.9v20.7c0,3,1.8,4.9,3.9,4.9C347.2,30.9,349,29,349,25.9 M339.7,0.7h-3v29.8h3V0.7z
		 M335.7,30.5v-3.1h-3.4V0.7h-3v29.8H335.7z M324,30.5V0.7h-2.4v16.7l-3.2-16.7h-2.6v29.8h2.5V14l3.7,16.5H324z M314.7,30.5v-3.1
		h-3.4V16.7h2.3v-3.1h-2.3V4h3.4V0.7h-6.3v29.8H314.7z M307.3,30.5v-3.1h-3.4V16.7h2.4v-3.1h-2.4V4h3.4V0.7H301v29.8H307.3z
		 M296.5,13.3c0,0.9-0.2,1.2-0.6,1.2h-1V3.8h1c0.4,0,0.6,0.3,0.6,1.2V13.3z M299.9,30.5c-0.2-1.5-0.4-3.1-0.4-5v-6.3
		c0-1.4-0.7-2.3-1.5-3.1c0.8-0.8,1.4-1.7,1.4-3.1V5.2c0-3.8-1.9-4.5-3.5-4.5h-4v29.8h3v-13h0.9c0.4,0,0.7,0.5,0.7,1.2v7.2
		c0,1.6,0.2,3.3,0.4,4.6H299.9z M290.8,30.5V15.9h-3.6v2.8h0.8v8c0,0.8-0.4,1.2-1,1.2c-0.6,0-1-0.4-1-1.2v-22c0-0.8,0.3-1.2,0.9-1.2
		c0.7,0,0.9,0.4,0.9,1.2v6.4h2.9V5.2c0-3-1.7-4.9-3.8-4.9c-2.1,0-3.8,1.9-3.8,4.9v20.7c0,3.4,1.3,4.9,3.4,4.9c0.8,0,1.8-0.4,2.1-1.2
		l0.3,0.8H290.8z M271.7,26.4c-0.2,0.4-0.6,0.8-1,0.8c-1,0-1.5-2-1.5-3.9c0-1.3,0.4-3.1,1-3.9C270.4,21.6,271,24.5,271.7,26.4
		 M272.7,5.3c0,1.6-0.3,4.8-1.3,6.3c-0.4-1.5-0.5-4.4-0.5-5.9c0-1.2,0.4-1.8,1-1.8C272.2,3.8,272.7,4.3,272.7,5.3 M278.8,25v-1.7
		h-2.5v2.2c0,1.1-0.3,1.7-0.7,1.7c-0.4,0-0.6-0.6-0.7-1.2c1.5-2.8,2.1-7.3,2.1-10.5h-2.6c0,1.7-0.4,5.2-0.9,6.6
		c-0.4-1.6-0.8-4.4-1.1-6.1c2-2.8,3-6.2,3-9.7c0-3.5-0.7-5.9-3.4-5.9c-3.1,0-4.3,2.4-4.3,7.2c0,2.6,0.6,4.7,1.2,7
		c-1.5,1.9-2.9,5.5-2.9,8.6c0,5,1.8,7.7,4,7.7c1.2,0,2.1-0.6,2.9-1.6c0.6,0.9,1.9,1.6,2.6,1.6C277.4,30.9,278.8,29,278.8,25
		 M261.2,30.5V0.7h-2.4v16.7l-3.2-16.7h-2.6v29.8h2.5V14l3.7,16.5H261.2z M248.5,26.4c0,0.8-0.3,1.2-0.9,1.2c-0.7,0-1-0.4-1-1.2V4.8
		c0-0.8,0.3-1.2,1-1.2c0.6,0,0.9,0.4,0.9,1.2V26.4z M251.6,25.9V5.2c0-3-1.8-4.9-3.9-4.9c-2.1,0-3.9,1.9-3.9,4.9v20.7
		c0,3,1.8,4.9,3.9,4.9C249.8,30.9,251.6,29,251.6,25.9 M242.3,0.7h-3v29.8h3V0.7z M238,4.2V0.7h-7.1v3.6h2.2v26.2h2.9V4.2H238z
		 M227.3,21.5h-1.6l0.9-12.7L227.3,21.5z M230.7,30.5l-2.2-29.8h-3.8l-2.1,29.8h2.6l0.3-5.6h2l0.2,5.6H230.7z M218.6,26.2
		c0,0.9-0.3,1.2-0.6,1.2h-1.3V3.8h1.3c0.3,0,0.6,0.3,0.6,1.2V26.2z M221.5,26V5.2c0-3.8-2.1-4.5-3.6-4.5h-4.2v29.8h4.2
		C219.5,30.5,221.5,29.8,221.5,26 M212.3,30.5V0.7h-2.4v16.7l-3.2-16.7h-2.6v29.8h2.5V14l3.7,16.5H212.3z M202.7,25.9V0.7h-2.6v25.7
		c0,0.8-0.3,1.2-0.9,1.2c-0.6,0-0.9-0.4-0.9-1.2V0.7h-2.8v25.3c0,3,1.6,4.9,3.7,4.9C201.2,30.9,202.7,29,202.7,25.9 M191.1,26.4
		c0,0.8-0.3,1.2-0.9,1.2c-0.7,0-1-0.4-1-1.2V4.8c0-0.8,0.3-1.2,1-1.2c0.6,0,0.9,0.4,0.9,1.2V26.4z M194.2,25.9V5.2
		c0-3-1.8-4.9-3.9-4.9c-2.1,0-3.9,1.9-3.9,4.9v20.7c0,3,1.8,4.9,3.9,4.9C192.4,30.9,194.2,29,194.2,25.9 M185.4,4V0.7h-6.3v29.8h2.9
		V17.1h2.6v-3.2H182V4H185.4z M173.7,25.9v-6.1h-2.9v6.6c0,0.8-0.3,1.2-0.9,1.2c-0.6,0-0.9-0.4-0.9-1.2V4.8c0-0.8,0.3-1.2,0.9-1.2
		c0.6,0,0.9,0.4,0.9,1.2v6.6h2.9V5.2c0-3-1.7-4.9-3.8-4.9c-2.1,0-3.8,1.9-3.8,4.9v20.7c0,3,1.6,4.9,3.8,4.9
		C172,30.9,173.7,29,173.7,25.9 M161.8,26.4c0,0.8-0.3,1.2-0.9,1.2c-0.7,0-1-0.4-1-1.2V4.8c0-0.8,0.3-1.2,1-1.2
		c0.6,0,0.9,0.4,0.9,1.2V26.4z M164.8,25.9V5.2c0-3-1.8-4.9-3.9-4.9c-2.1,0-3.9,1.9-3.9,4.9v20.7c0,3,1.8,4.9,3.9,4.9
		C163,30.9,164.8,29,164.8,25.9 M152.7,26.2c0,0.9-0.3,1.2-0.6,1.2h-1.3V3.8h1.3c0.3,0,0.6,0.3,0.6,1.2V26.2z M155.7,26V5.2
		c0-3.8-2.1-4.5-3.6-4.5h-4.2v29.8h4.2C153.7,30.5,155.7,29.8,155.7,26 M146.8,4.2V0.7h-7.1v3.6h2.2v26.2h2.9V4.2H146.8z M138.4,0.7
		h-3v29.8h3V0.7z M130.8,13.3c0,0.9-0.2,1.2-0.6,1.2h-1V3.8h1c0.4,0,0.6,0.3,0.6,1.2V13.3z M134.2,30.5c-0.2-1.5-0.4-3.1-0.4-5v-6.3
		c0-1.4-0.7-2.3-1.5-3.1c0.8-0.8,1.4-1.7,1.4-3.1V5.2c0-3.8-1.9-4.5-3.5-4.5h-4v29.8h3v-13h0.9c0.4,0,0.7,0.5,0.7,1.2v7.2
		c0,1.6,0.2,3.3,0.4,4.6H134.2z M121.9,26.2c0,0.9-0.2,1.2-0.6,1.2h-1V16.8h1c0.4,0,0.6,0.3,0.6,1.2V26.2z M121.9,12.8
		c0,0.9-0.2,1.2-0.6,1.2h-1V3.8h1c0.4,0,0.6,0.3,0.6,1.2V12.8z M124.8,26v-7.6c0-1.4-0.6-2.3-1.5-3.1c0.9-0.8,1.5-1.7,1.5-3.1v-7
		c0-3.8-2-4.5-3.5-4.5h-4v29.8h4C122.9,30.5,124.8,29.8,124.8,26 M112.3,30.5v-3.1h-3.4V16.7h2.3v-3.1h-2.3V4h3.4V0.7H106v29.8
		H112.3z M104.6,30.5V0.7h-2.9v13.4h-1.9V0.7h-2.9v29.8h2.9v-13h1.9v13H104.6z M95.7,4.2V0.7h-7.1v3.6h2.2v26.2h2.9V4.2H95.7z"/>
</g>
</svg>
